<?xml version="1.0" encoding="UTF-8" standalone="no"?>
<svg
   xmlns:dc="http://purl.org/dc/elements/1.1/"
   xmlns:cc="http://creativecommons.org/ns#"
   xmlns:rdf="http://www.w3.org/1999/02/22-rdf-syntax-ns#"
   xmlns:svg="http://www.w3.org/2000/svg"
   xmlns="http://www.w3.org/2000/svg"
   xmlns:sodipodi="http://sodipodi.sourceforge.net/DTD/sodipodi-0.dtd"
   xmlns:inkscape="http://www.inkscape.org/namespaces/inkscape"
   width="40"
   height="40"
   viewBox="0 0 40 40"
   version="1.1"
   id="svg13"
   sodipodi:docname="galaxy-small.svg"
   inkscape:version="0.92.3 (2405546, 2018-03-11)">
  <metadata
     id="metadata17">
    <rdf:RDF>
      <cc:Work
         rdf:about="">
        <dc:format>image/svg+xml</dc:format>
        <dc:type
           rdf:resource="http://purl.org/dc/dcmitype/StillImage" />
      </cc:Work>
    </rdf:RDF>
  </metadata>
  <sodipodi:namedview
     pagecolor="#ffffff"
     bordercolor="#666666"
     borderopacity="1"
     objecttolerance="10"
     gridtolerance="10"
     guidetolerance="10"
     inkscape:pageopacity="0"
     inkscape:pageshadow="2"
     inkscape:window-width="1366"
     inkscape:window-height="713"
     id="namedview15"
     showgrid="false"
     inkscape:zoom="2.085965"
     inkscape:cx="11.428037"
     inkscape:cy="16.114808"
     inkscape:window-x="0"
     inkscape:window-y="27"
     inkscape:window-maximized="1"
     inkscape:current-layer="svg13" />
  <title
     id="title2">music-block-icon</title>
  <defs
     id="defs5">
    <path
       d="M32.18 25.874C32.636 28.157 30.512 30 27.433 30c-3.07 0-5.923-1.843-6.372-4.126-.458-2.285 1.665-4.136 4.743-4.136.647 0 1.283.084 1.89.234.338.086.637.18.938.302.87-.02-.104-2.294-1.835-12.23-2.134-12.302 3.06-1.87 8.768-2.752 5.708-.885.076 4.82-3.65 3.844-3.724-.987-4.65-7.153.263 14.738zm-16.998 5.99C15.63 34.148 13.507 36 10.44 36c-3.07 0-5.922-1.852-6.38-4.136-.448-2.284 1.674-4.135 4.75-4.135 1.003 0 1.975.196 2.855.543.822-.055-.15-2.377-1.862-12.228-2.133-12.303 3.06-1.87 8.764-2.753 5.706-.894.076 4.82-3.648 3.834-3.724-.987-4.65-7.152.262 14.738z"
       id="a" />
  </defs>
  <rect
     style="opacity:1;vector-effect:none;fill:#003399;fill-opacity:1;stroke:none;stroke-width:10.88503933;stroke-linecap:butt;stroke-linejoin:miter;stroke-miterlimit:4;stroke-dasharray:none;stroke-dashoffset:0;stroke-opacity:1"
     id="rect844"
     width="27.785702"
     height="7.5936074"
     x="3.4612272"
     y="5.1839795" />
  <rect
     style="opacity:1;vector-effect:none;fill:#003399;fill-opacity:1;stroke:none;stroke-width:10.88503933;stroke-linecap:butt;stroke-linejoin:miter;stroke-miterlimit:4;stroke-dasharray:none;stroke-dashoffset:0;stroke-opacity:1"
     id="rect846"
     width="20.537258"
     height="7.0758619"
     x="3.1160638"
     y="15.538899" />
  <rect
     style="opacity:1;vector-effect:none;fill:#d0bd2b;fill-opacity:1;stroke:none;stroke-width:10.88503933;stroke-linecap:butt;stroke-linejoin:miter;stroke-miterlimit:4;stroke-dasharray:none;stroke-dashoffset:0;stroke-opacity:1"
     id="rect848"
     width="25.024391"
     height="8.9742641"
     x="12.608072"
     y="25.203491" />
</svg>
